<svg xmlns="http://www.w3.org/2000/svg" viewBox="0 0 18 18"><defs><style>.cls-1{fill:#00c1ff;}.cls-2{fill:#fff;}</style></defs><title>info-tel</title><g id="Layer_2" data-name="Layer 2"><g id="bg"><circle class="cls-1" cx="9" cy="9" r="9"/><path class="cls-2" d="M9.83,11.35H8.05c0-.25,0-.41,0-.46a3.13,3.13,0,0,1,.29-1.43A4.43,4.43,0,0,1,9.47,8.2a8,8,0,0,0,1-.91,1.26,1.26,0,0,0-.2-1.74,1.77,1.77,0,0,0-1.23-.41,1.83,1.83,0,0,0-1.25.43,2.2,2.2,0,0,0-.69,1.3L5.32,6.64A3,3,0,0,1,6.39,4.52,3.78,3.78,0,0,1,9,3.65a3.93,3.93,0,0,1,2.69.88,2.69,2.69,0,0,1,1,2.06,2.32,2.32,0,0,1-.37,1.23A8.59,8.59,0,0,1,10.74,9.4a3,3,0,0,0-.77.83A2.74,2.74,0,0,0,9.83,11.35ZM8.05,14V12h2v2Z"/></g></g></svg>