<?xml version="1.0" encoding="utf-8"?>
<!-- Generator: Adobe Illustrator 23.0.4, SVG Export Plug-In . SVG Version: 6.00 Build 0)  -->
<svg version="1.1" id="Layer_1" xmlns="http://www.w3.org/2000/svg" xmlns:xlink="http://www.w3.org/1999/xlink" x="0px" y="0px"
	 viewBox="0 0 124.3 124.2" style="enable-background:new 0 0 124.3 124.2;" xml:space="preserve">
<style type="text/css">
	.st0{fill:#ED1C24;}
	.st1{enable-background:new    ;}
	.st2{fill:#FFFFFF;}
</style>
<title>best</title>
<g>
	<g id="bg">
		<path class="st0" d="M99.2,4.3L4.3,99.2c-5.7,5.7-5.7,15,0.1,20.7c2.7,2.7,6.5,4.3,10.3,4.3h109.6l-0.1-109.5
			c0-8.1-6.6-14.6-14.7-14.6C105.6,0,101.9,1.6,99.2,4.3z"/>
		<g class="st1">
			<path class="st2" d="M48.1,91.1l-2.5,2.5l-6.1-6.1l-2,2l2.5,2.5c1,1,1.7,1.8,2.1,2.4c0.4,0.6,0.5,1.2,0.3,1.8
				c-0.2,0.6-0.7,1.4-1.6,2.3c-0.3,0.3-0.6,0.6-1,0.9l-1.6-1.6l0.4-0.4c0.3-0.3,0.5-0.7,0.5-0.9c0-0.3-0.2-0.6-0.6-1l-5.4-5.4l7-7
				L48.1,91.1z"/>
			<path class="st2" d="M41.8,81.2l2.7-2.7l4.5,2.2l-2.2-4.4l2.5-2.5l3.6,8.9c0.3,0.7,0.5,1.3,0.6,1.7c0.1,0.4,0.1,0.9-0.1,1.3
				s-0.5,1-1.1,1.6c-0.3,0.3-0.8,0.8-1.6,1.4L49,86.9c0.5-0.4,0.8-0.7,1-0.9c0.6-0.6,0.7-1.1,0.4-1.7L41.8,81.2z"/>
			<path class="st2" d="M66.6,72.6l-2.5,2.5l-3-3c-0.3,1.2-0.9,2.1-1.5,2.8c-0.8,0.8-1.7,1.3-2.8,1.3s-2-0.4-2.8-1.2l-3-3l2.5-2.5
				L56,72c0.4,0.4,0.8,0.6,1.2,0.6c0.4,0,0.8-0.1,1.1-0.5c0.7-0.7,0.9-1.3,0.8-2L56,67l2.5-2.5L66.6,72.6z"/>
			<path class="st2" d="M80.1,59.1L69.2,70l-8.1-8.1l2.5-2.5l6.1,6.1l1.7-1.7l-6.1-6.1l2.5-2.5l6.1,6.1l1.7-1.7l-6.1-6.1L72,51
				L80.1,59.1z"/>
			<path class="st2" d="M86.3,50.2l-2.8,2.8l0.9,1.7l-2.6,2.6l-5.1-11.1l2.7-2.7l11.1,5.1L88,51.2L86.3,50.2z M84,49l-3.8-2l2,3.8
				L84,49z"/>
			<path class="st2" d="M97,42.2l-3.3-3.3l-0.2,0.2c-0.2,0.2-0.4,0.5-0.4,0.8c0,0.2,0,0.6,0.2,1.1l1.1,3.8l-2.8,2.8l-1.1-3.6
				c-0.1-0.2-0.1-0.5-0.2-0.9c0-0.4-0.1-0.7,0-0.8c0-0.2,0.2-0.6,0.4-0.9c-0.5,0.3-0.9,0.5-1.2,0.6c-0.5,0.1-1.1,0.1-1.6,0
				c-0.5-0.1-1-0.4-1.5-0.9c-0.5-0.5-0.8-1.1-0.9-1.7c-0.1-0.6,0-1.2,0.3-1.7c0.3-0.5,0.8-1.2,1.6-2l4.2-4.2l8.1,8.1L97,42.2z
				 M90.6,35.7l-1.1,1.1c-0.5,0.5-0.7,0.8-0.7,1.1c0,0.3,0.1,0.6,0.4,0.9c0.2,0.2,0.4,0.3,0.6,0.3c0.2,0,0.5,0,0.7-0.2
				c0.4-0.3,0.7-0.4,0.8-0.6l1.1-1.1L90.6,35.7z"/>
		</g>
		<g class="st1">
			<path class="st2" d="M74.6,93.5l-2,2l-1.8-1.8l-6.6,6.6l-8.1-8.1l2.5-2.5l6.1,6.1l2.8-2.8L61.4,87l2.5-2.5l6.2,6.2l0.9-0.9
				L74.6,93.5z"/>
			<path class="st2" d="M66.8,81.7l6.7-6.7l1.7,1.7L71,80.9l1.3,1.3l3.9-3.9l1.7,1.7L74,83.8l1.6,1.6l4.3-4.3l1.8,1.8l-6.8,6.8
				L66.8,81.7z"/>
			<path class="st2" d="M75.9,72.6l2.5-2.5l2.8,2.8l2.7-2.7l-2.8-2.8l2.5-2.5l8.1,8.1l-2.5,2.5l-3.3-3.3l-2.7,2.7l3.3,3.3L84,80.7
				L75.9,72.6z"/>
			<path class="st2" d="M97.9,64.1l-2.8,2.8l0.9,1.7l-2.6,2.6L88.4,60l2.7-2.7l11.1,5.1L99.7,65L97.9,64.1z M95.7,62.8l-3.8-2l2,3.8
				L95.7,62.8z"/>
		</g>
	</g>
</g>
</svg>
