<?xml version="1.0" encoding="utf-8"?>
<!-- Generator: Adobe Illustrator 23.0.4, SVG Export Plug-In . SVG Version: 6.00 Build 0)  -->
<svg version="1.1" id="Layer_1" xmlns="http://www.w3.org/2000/svg" xmlns:xlink="http://www.w3.org/1999/xlink" x="0px" y="0px"
	 viewBox="0 0 126.4 126.4" style="enable-background:new 0 0 126.4 126.4;" xml:space="preserve">
<style type="text/css">
	.st0{fill:#ED1C24;}
	.st1{enable-background:new    ;}
	.st2{fill:#FFFFFF;}
</style>
<title>stop</title>
<g>
	<g id="text">
		<polygon class="st0" points="126.4,70.4 70.4,126.4 0,126.4 126.4,0 		"/>
		<g class="st1">
			<path class="st2" d="M61.5,104.2l-2.2,2.2l-5.3-5.3l-2.4,2.4l5.3,5.3l-2.2,2.2l-7-7l6.7-6.7L61.5,104.2z"/>
			<path class="st2" d="M56.7,94.9l3.6-3.6c0.8-0.8,1.6-1.2,2.3-1.2s1.5,0.3,2.2,1c0.7,0.7,1,1.5,1,2.3s-0.5,1.7-1.4,2.5l-1.2,1.2
				l2.6,2.6l-2.2,2.2L56.7,94.9z M61.9,95.7l0.5-0.5c0.4-0.4,0.6-0.8,0.7-1.1c0-0.3-0.1-0.6-0.3-0.8C62.6,93.1,62.3,93,62,93
				s-0.7,0.2-1.1,0.6l-0.6,0.6L61.9,95.7z"/>
			<path class="st2" d="M67.8,90.8c-1.1-1.1-1.7-2.4-1.7-3.6s0.6-2.5,1.7-3.6c1.2-1.2,2.4-1.8,3.6-1.8s2.5,0.6,3.6,1.7
				c0.8,0.8,1.4,1.6,1.6,2.4c0.2,0.8,0.3,1.6,0,2.4c-0.2,0.8-0.7,1.6-1.5,2.4c-0.8,0.8-1.6,1.3-2.3,1.6c-0.8,0.3-1.6,0.3-2.5,0.1
				S68.6,91.7,67.8,90.8z M70,88.7c0.7,0.7,1.3,1.1,1.9,1.1s1.1-0.2,1.5-0.6c0.5-0.5,0.7-1,0.6-1.5c0-0.6-0.5-1.2-1.2-2
				c-0.7-0.7-1.3-1-1.8-1c-0.6,0-1.1,0.2-1.5,0.6c-0.4,0.4-0.6,0.9-0.6,1.5C68.9,87.3,69.3,88,70,88.7z"/>
			<path class="st2" d="M89.4,79.3L87.7,81l-1.5-1.5L81.7,84l1.5,1.5l-1.7,1.7l-3.1-3.1l0.7-0.7c-0.7-1.5-1.8-3-3.2-4.4l-1.6-1.6
				l5.9-5.9l5.4,5.4l0.8-0.8L89.4,79.3z M83.4,79.1l-3.7-3.7l-1.7,1.7l0.1,0.1c1,1,2,2.3,3.1,4.1L83.4,79.1z"/>
			<path class="st2" d="M92.7,70.7l-2.5,2.5l0.8,1.5l-2.2,2.2l-4.4-9.6l2.4-2.4l9.6,4.4l-2.3,2.3L92.7,70.7z M90.7,69.6l-3.3-1.7
				l1.8,3.3L90.7,69.6z"/>
			<path class="st2" d="M90.9,60.7l2.2-2.2l2.5,2.5l2.4-2.4l-2.5-2.5l2.2-2.2l7,7l-2.2,2.2l-2.8-2.8l-2.4,2.4l2.8,2.8l-2.2,2.2
				L90.9,60.7z"/>
			<path class="st2" d="M103.1,55.6c-1.1-1.1-1.7-2.4-1.7-3.6c0-1.3,0.6-2.5,1.7-3.6c1.2-1.2,2.4-1.8,3.6-1.8c1.3,0,2.5,0.6,3.6,1.7
				c0.8,0.8,1.4,1.6,1.6,2.4s0.3,1.6,0,2.4c-0.2,0.8-0.7,1.6-1.5,2.4c-0.8,0.8-1.6,1.3-2.3,1.6c-0.8,0.3-1.6,0.3-2.5,0.1
				C104.8,56.9,103.9,56.4,103.1,55.6z M105.3,53.4c0.7,0.7,1.3,1.1,1.9,1.1s1.1-0.2,1.5-0.6c0.5-0.5,0.7-1,0.6-1.5
				c0-0.6-0.5-1.2-1.2-2c-0.7-0.7-1.3-1-1.8-1c-0.6,0-1.1,0.2-1.5,0.6c-0.4,0.4-0.6,0.9-0.6,1.5C104.2,52.1,104.6,52.7,105.3,53.4z"
				/>
		</g>
	</g>
</g>
</svg>
