<svg xmlns="http://www.w3.org/2000/svg" viewBox="0 0 126.45 126.45"><defs><style>.cls-1{fill:#ed1c24;}.cls-2{fill:#fff;}</style></defs><title>close</title><g id="Layer_2" data-name="Layer 2"><g id="text"><polygon class="cls-1" points="126.45 70.45 70.45 126.45 0 126.45 126.45 0 126.45 70.45"/><path class="cls-2" d="M55.19,103a2.15,2.15,0,0,1,2.85.33,3,3,0,0,1,.9,2.48,4.84,4.84,0,0,1-1.58,2.89q-2.47,2.47-5.14,1l1.89-2.2a1.28,1.28,0,0,0,1.72-.25,1.3,1.3,0,0,0,.45-.91,1.16,1.16,0,0,0-.39-.86,1.11,1.11,0,0,0-.92-.34,1.74,1.74,0,0,0-1,.56l-.59.59-1.25-1.25.46-.47a1.25,1.25,0,0,0,.43-.87,1.07,1.07,0,0,0-.36-.84c-.38-.38-.81-.33-1.28.14a1.09,1.09,0,0,0-.21,1.52L49,106.26q-1.35-2.3,1-4.66a5.08,5.08,0,0,1,2.56-1.54,2.24,2.24,0,0,1,2.1.63A2.07,2.07,0,0,1,55.19,103Z"/><path class="cls-2" d="M65.28,98.25l-2.46,2.46.82,1.5-2.21,2.21-4.38-9.65,2.36-2.36,9.65,4.38-2.27,2.27Zm-2-1.07L60,95.44l1.76,3.28Z"/><path class="cls-2" d="M76.91,88.94l-2.44,2.44-2.66-1a4.22,4.22,0,0,0-1.27-.34.89.89,0,0,0-.62.3l2.78,2.77-2.17,2.17-7-7,2.16-2.16,2.7,2.7a.88.88,0,0,0,.24-.65A7.24,7.24,0,0,0,68,86.63a4.26,4.26,0,0,1-.45-1.43A2,2,0,0,1,68,84a12.32,12.32,0,0,1,1.63-1.88l1.48,1.48-.11.11a1.89,1.89,0,0,0-.61,1,2.1,2.1,0,0,0,.24,1.12A3.48,3.48,0,0,1,71,86.92a2,2,0,0,1-.18.92,2.62,2.62,0,0,1,1.35-.29A7.08,7.08,0,0,1,74,88Z"/><path class="cls-2" d="M71.45,80.38l3.6-3.6a3.42,3.42,0,0,1,2.32-1.2,3,3,0,0,1,2.18,1,3,3,0,0,1,1,2.3,4,4,0,0,1-1.35,2.55L78,82.61l2.61,2.6-2.18,2.18Zm5.16.81.53-.53a2,2,0,0,0,.67-1.1,1,1,0,0,0-.31-.81,1.12,1.12,0,0,0-.78-.34,1.65,1.65,0,0,0-1,.6l-.62.62Z"/><path class="cls-2" d="M84.19,73l1.16-1.16a5.68,5.68,0,0,1,2.92-1.8,2.88,2.88,0,0,1,2.52,1,2.43,2.43,0,0,1,.78,2.19,4.8,4.8,0,0,1-1.51,2.54l-3.72,3.72-7-7,2.17-2.16Zm2.8,2.8,1.11-1.1c.68-.68.77-1.27.28-1.76s-1-.31-1.66.37l-1.11,1.11Zm-.68-10.32,2.17-2.17,7,7-2.17,2.17Z"/><path class="cls-2" d="M90.2,61.62,96.79,55l1.73,1.74L96.31,59l5.28,5.28-2.16,2.16-5.28-5.28-2.21,2.21Z"/><path class="cls-2" d="M101.79,57.05a4.71,4.71,0,0,1,0-7.25A5.24,5.24,0,0,1,105.42,48,5,5,0,0,1,109,49.73a6,6,0,0,1,1.6,2.43,4.16,4.16,0,0,1,0,2.42A5.6,5.6,0,0,1,109.12,57a6.25,6.25,0,0,1-2.34,1.58,4.19,4.19,0,0,1-2.46.07A5.64,5.64,0,0,1,101.79,57.05ZM104,54.9A3.4,3.4,0,0,0,105.89,56a1.92,1.92,0,0,0,1.54-.61,2,2,0,0,0,.63-1.54,3.69,3.69,0,0,0-1.25-2,3.09,3.09,0,0,0-1.85-1,1.92,1.92,0,0,0-1.54.63,1.85,1.85,0,0,0-.59,1.51A3.41,3.41,0,0,0,104,54.9Z"/></g></g></svg>