<svg xmlns="http://www.w3.org/2000/svg" viewBox="0 0 236 105"><defs><style>.cls-1{fill:gray;}.cls-2,.cls-3{fill:none;}.cls-3{stroke:#fff;stroke-miterlimit:10;}.cls-4{fill:#fff;}.cls-5{fill:#f21822;}</style></defs><title>din-blue</title><g id="Layer_2" data-name="Layer 2"><g id="din-blue"><g id="din-blue-2" data-name="din-blue"><path class="cls-1" d="M60.76,11.38v30H67.5V11.28A3.37,3.37,0,0,0,63,8.18,3.33,3.33,0,0,0,60.76,11.38Z"/><rect class="cls-1" x="45.35" y="64.53" width="9.63" height="1.93"/><rect class="cls-1" x="45.35" y="58.75" width="13.49" height="1.93"/><rect class="cls-1" x="45.35" y="52.97" width="9.63" height="1.93"/><rect class="cls-1" x="45.35" y="47.19" width="13.49" height="1.93"/><rect class="cls-1" x="45.35" y="41.41" width="9.63" height="1.93"/><rect class="cls-1" x="45.35" y="34.67" width="13.49" height="1.93"/><rect class="cls-1" x="45.35" y="28.89" width="9.63" height="1.93"/><rect class="cls-1" x="45.35" y="23.11" width="13.49" height="1.93"/><rect class="cls-1" x="45.35" y="17.33" width="9.63" height="1.93"/><rect class="cls-1" x="45.35" y="11.55" width="13.49" height="1.93"/><rect class="cls-2" width="236" height="105"/><polyline class="cls-3" points="229.48 100.66 192.47 89.89 155.47 100.66 118.46 89.89 81.46 100.66 44.45 89.89 7.44 100.66"/><circle class="cls-4" cx="44.46" cy="89.89" r="2.52"/><circle class="cls-4" cx="81.47" cy="100.66" r="2.52"/><circle class="cls-4" cx="118.48" cy="89.89" r="2.52"/><circle class="cls-4" cx="155.48" cy="100.66" r="2.52"/><circle class="cls-4" cx="7.44" cy="100.66" r="2.52"/><circle class="cls-4" cx="192.48" cy="89.89" r="2.52"/><circle class="cls-4" cx="229.48" cy="100.66" r="2.52"/><path class="cls-5" d="M68.79,67.06l-1.29-.83V38.52H60.76V66.23L59.6,67a8.45,8.45,0,0,0-3.42,4.07,8.34,8.34,0,0,0,7.74,11.21,8.55,8.55,0,0,0,6.15-2.35A8.13,8.13,0,0,0,72.63,74a8.22,8.22,0,0,0-3.84-6.92Z"/></g></g></g></svg>