<svg xmlns="http://www.w3.org/2000/svg" viewBox="0 0 270.07 103.04"><defs><style>.cls-1{fill:none;stroke:gray;stroke-miterlimit:10;}.cls-2{fill:gray;}.cls-3{fill:#fff;}.cls-4{fill:#f21822;}</style></defs><title>din-white</title><g id="Layer_2" data-name="Layer 2"><g id="bg"><polyline class="cls-1" points="267.07 100.04 223.06 87.22 179.05 100.04 135.04 87.22 91.03 100.04 47.02 87.22 3 100.04"/><circle class="cls-2" cx="47.03" cy="87.22" r="3"/><circle class="cls-2" cx="91.05" cy="100.04" r="3"/><circle class="cls-2" cx="135.06" cy="87.22" r="3"/><circle class="cls-2" cx="179.07" cy="100.04" r="3"/><circle class="cls-2" cx="3" cy="100.04" r="3"/><circle class="cls-2" cx="223.06" cy="87.22" r="3"/><circle class="cls-2" cx="267.07" cy="100.04" r="3"/><path class="cls-3" d="M64.08,3.51V34.69h7V3.41a3.5,3.5,0,0,0-7,.1Z"/><rect class="cls-3" x="48.08" y="58.69" width="10" height="2"/><rect class="cls-3" x="48.08" y="52.69" width="14" height="2"/><rect class="cls-3" x="48.08" y="46.69" width="10" height="2"/><rect class="cls-3" x="48.08" y="40.69" width="14" height="2"/><rect class="cls-3" x="48.08" y="34.69" width="10" height="2"/><rect class="cls-3" x="48.08" y="27.69" width="14" height="2"/><rect class="cls-3" x="48.08" y="21.69" width="10" height="2"/><rect class="cls-3" x="48.08" y="15.69" width="14" height="2"/><rect class="cls-3" x="48.08" y="9.69" width="10" height="2"/><rect class="cls-3" x="48.08" y="3.69" width="14" height="2"/><path class="cls-2" d="M64.08,3.51V34.69h7V3.41a3.5,3.5,0,0,0-7,.1Z"/><rect class="cls-2" x="48.08" y="58.69" width="10" height="2"/><rect class="cls-2" x="48.08" y="52.69" width="14" height="2"/><rect class="cls-2" x="48.08" y="46.69" width="10" height="2"/><rect class="cls-2" x="48.08" y="40.69" width="14" height="2"/><rect class="cls-2" x="48.08" y="34.69" width="10" height="2"/><rect class="cls-2" x="48.08" y="27.69" width="14" height="2"/><rect class="cls-2" x="48.08" y="21.69" width="10" height="2"/><rect class="cls-2" x="48.08" y="15.69" width="14" height="2"/><rect class="cls-2" x="48.08" y="9.69" width="10" height="2"/><rect class="cls-2" x="48.08" y="3.69" width="14" height="2"/><path class="cls-4" d="M72.42,61.31l-1.34-.85V31.69h-7V60.46l-1.2.77a8.79,8.79,0,0,0-3.55,4.23,8.66,8.66,0,0,0,8,11.64,9,9,0,0,0,6.38-2.45,8.43,8.43,0,0,0,2.66-6.15,8.53,8.53,0,0,0-4-7.19Z"/></g></g></svg>