<svg xmlns="http://www.w3.org/2000/svg" viewBox="0 0 226.96 97.99"><defs><style>.cls-1,.cls-2{fill:none;stroke:gray;stroke-miterlimit:10;}.cls-1{stroke-width:3px;}</style></defs><title>clock-white</title><g id="Layer_2" data-name="Layer 2"><g id="bg"><circle class="cls-1" cx="113.96" cy="37.5" r="36"/><line class="cls-2" x1="113.96" y1="14" x2="113.96" y2="9"/><line class="cls-2" x1="138.46" y1="37.5" x2="143.46" y2="37.5"/><line class="cls-2" x1="113.96" y1="68" x2="113.96" y2="63"/><line class="cls-2" x1="89.46" y1="37.5" x2="84.46" y2="37.5"/><polyline class="cls-2" points="113.96 18 113.96 38.28 124.06 48.38"/><path class="cls-2" d="M0,92.93c7.09,0,7.09,4.56,14.18,4.56s7.09-4.56,14.18-4.56,7.09,4.56,14.18,4.56,7.09-4.56,14.18-4.56,7.09,4.56,14.19,4.56S78,92.93,85.09,92.93s7.09,4.56,14.18,4.56,7.09-4.56,14.19-4.56,7.09,4.56,14.18,4.56,7.09-4.56,14.19-4.56,7.09,4.56,14.19,4.56,7.09-4.56,14.18-4.56,7.1,4.56,14.19,4.56,7.1-4.56,14.19-4.56,7.1,4.56,14.19,4.56,7.1-4.56,14.19-4.56"/></g></g></svg>