<svg xmlns="http://www.w3.org/2000/svg" viewBox="0 0 226.96 95.27"><defs><style>.cls-1{fill:gray;}.cls-2{fill:none;stroke:gray;stroke-miterlimit:10;}</style></defs><title>vip-white</title><g id="Layer_2" data-name="Layer 2"><g id="icons"><path class="cls-1" d="M70.6,67,53.14,19.63H69.4L79.62,51.51,89.84,19.63H106.1L88.64,67Z"/><path class="cls-1" d="M108.65,67V19.63H123V67Z"/><path class="cls-1" d="M130.66,67V19.63h25.28c11.07,0,17,7.38,17,16.26s-6,16.18-17,16.18H145V67Zm27.76-31.09c0-2.56-1.92-3.77-4.33-3.77H145v7.46h9.09C156.5,39.58,158.42,38.37,158.42,35.89Z"/><path class="cls-2" d="M0,90.22c7.09,0,7.09,4.55,14.18,4.55s7.09-4.55,14.18-4.55,7.09,4.55,14.18,4.55,7.09-4.55,14.18-4.55,7.09,4.55,14.19,4.55S78,90.22,85.09,90.22s7.09,4.55,14.18,4.55,7.09-4.55,14.19-4.55,7.09,4.55,14.18,4.55,7.09-4.55,14.19-4.55,7.09,4.55,14.19,4.55,7.09-4.55,14.18-4.55,7.1,4.55,14.19,4.55,7.1-4.55,14.19-4.55,7.1,4.55,14.19,4.55,7.1-4.55,14.19-4.55"/><circle class="cls-2" cx="115.78" cy="7.62" r="7.12"/></g></g></svg>