<svg xmlns="http://www.w3.org/2000/svg" viewBox="0 0 236 105"><defs><style>.cls-1{fill:#fff;}.cls-2,.cls-3,.cls-4,.cls-5{fill:none;}.cls-2,.cls-3{stroke:#fff;}.cls-2,.cls-3,.cls-4{stroke-miterlimit:10;}.cls-3{stroke-width:3px;}.cls-4{stroke:gray;}</style></defs><title>clock-blue</title><g id="Layer_2" data-name="Layer 2"><g id="clock-blue"><path class="cls-1" d="M118,41.28V4.5a35.91,35.91,0,1,0,24.93,61.71Z"/><path class="cls-2" d="M5,93c7.09,0,7.09,4.55,14.18,4.55S26.29,93,33.38,93s7.09,4.55,14.18,4.55S54.65,93,61.74,93s7.09,4.55,14.19,4.55S83,93,90.11,93s7.09,4.55,14.18,4.55S111.38,93,118.48,93s7.09,4.55,14.18,4.55S139.75,93,146.85,93s7.09,4.55,14.19,4.55S168.13,93,175.22,93s7.1,4.55,14.19,4.55S196.51,93,203.6,93s7.1,4.55,14.19,4.55S224.89,93,232,93"/><circle class="cls-3" cx="118.5" cy="40.5" r="36"/><line class="cls-4" x1="118.5" y1="17" x2="118.5" y2="12"/><line class="cls-4" x1="143" y1="40.5" x2="148" y2="40.5"/><line class="cls-4" x1="118.5" y1="71" x2="118.5" y2="66"/><line class="cls-4" x1="94" y1="40.5" x2="89" y2="40.5"/><polyline class="cls-4" points="118.5 21 118.5 41.28 128.59 51.38"/><rect class="cls-5" width="236" height="105"/></g></g></svg>