<svg xmlns="http://www.w3.org/2000/svg" viewBox="0 0 236 105"><defs><style>.cls-1{fill:gray;}.cls-2,.cls-3{fill:none;}.cls-2{stroke:gray;stroke-miterlimit:10;}</style></defs><title>vip-white</title><g id="Layer_2" data-name="Layer 2"><g id="vip-white"><path class="cls-1" d="M75.62,69.77,58.16,22.41H74.42L84.64,54.29,94.86,22.41h16.26L93.66,69.77Z"/><path class="cls-1" d="M113.67,69.77V22.41H128V69.77Z"/><path class="cls-1" d="M135.68,69.77V22.41H161c11.07,0,17,7.38,17,16.26s-6,16.19-17,16.19H150V69.77Zm27.76-31.1c0-2.56-1.92-3.76-4.33-3.76H150v7.45h9.09C161.52,42.36,163.44,41.15,163.44,38.67Z"/><path class="cls-2" d="M5,93c7.09,0,7.09,4.55,14.18,4.55S26.29,93,33.38,93s7.09,4.55,14.18,4.55S54.65,93,61.74,93s7.09,4.55,14.19,4.55S83,93,90.11,93s7.09,4.55,14.18,4.55S111.38,93,118.48,93s7.09,4.55,14.18,4.55S139.75,93,146.85,93s7.09,4.55,14.19,4.55S168.13,93,175.22,93s7.1,4.55,14.19,4.55S196.51,93,203.6,93s7.1,4.55,14.19,4.55S224.89,93,232,93"/><circle class="cls-1" cx="120.8" cy="10.4" r="7.12"/><rect class="cls-3" width="236" height="105"/></g></g></svg>