<svg xmlns="http://www.w3.org/2000/svg" viewBox="0 0 236 105"><defs><style>.cls-1,.cls-2,.cls-3{fill:none;}.cls-1,.cls-2{stroke:gray;stroke-miterlimit:10;}.cls-2{stroke-width:3px;}</style></defs><title>day-white</title><g id="Layer_2" data-name="Layer 2"><g id="day-white"><g id="day-white-2" data-name="day-white"><path class="cls-1" d="M5,93c7.09,0,7.09,4.55,14.18,4.55S26.29,93,33.38,93s7.09,4.55,14.18,4.55S54.65,93,61.74,93s7.09,4.55,14.19,4.55S83,93,90.11,93s7.09,4.55,14.18,4.55S111.38,93,118.48,93s7.09,4.55,14.18,4.55S139.75,93,146.85,93s7.09,4.55,14.19,4.55S168.13,93,175.22,93s7.1,4.55,14.19,4.55S196.51,93,203.6,93s7.1,4.55,14.19,4.55S224.89,93,232,93"/><path class="cls-1" d="M86,22V59.4A7.6,7.6,0,0,0,93.6,67h50.8a7.6,7.6,0,0,0,7.6-7.6V22Z"/><path class="cls-2" d="M144.9,8.5H94.1a7.6,7.6,0,0,0-7.6,7.6V58.9a7.6,7.6,0,0,0,7.6,7.6h50.8a7.6,7.6,0,0,0,7.6-7.6V16.1A7.6,7.6,0,0,0,144.9,8.5Z"/><line class="cls-1" x1="97" y1="31.5" x2="142" y2="31.5"/><line class="cls-1" x1="97" y1="42.5" x2="142" y2="42.5"/><line class="cls-1" x1="97" y1="52.5" x2="142" y2="52.5"/><line class="cls-1" x1="98.5" y1="5" x2="98.5" y2="14"/><line class="cls-1" x1="141.5" y1="5" x2="141.5" y2="14"/><rect class="cls-3" width="236" height="105"/></g></g></g></svg>