<svg xmlns="http://www.w3.org/2000/svg" viewBox="0 0 226.96 94.77"><defs><style>.cls-1{fill:#fff;}.cls-2{fill:none;stroke:#fff;stroke-miterlimit:10;}.cls-3{fill:gray;}</style></defs><title>vip-blue</title><g id="Layer_2" data-name="Layer 2"><g id="icons"><path class="cls-1" d="M70.6,66.48,53.14,19.13H69.4L79.62,51,89.84,19.13H106.1L88.64,66.48Z"/><path class="cls-1" d="M108.65,66.48V19.13H123V66.48Z"/><path class="cls-1" d="M130.66,66.48V19.13h25.28c11.07,0,17,7.38,17,16.26s-6,16.18-17,16.18H145V66.48Zm27.76-31.09c0-2.56-1.92-3.77-4.33-3.77H145v7.46h9.09C156.5,39.08,158.42,37.87,158.42,35.39Z"/><path class="cls-2" d="M0,89.72c7.09,0,7.09,4.55,14.18,4.55s7.09-4.55,14.18-4.55,7.09,4.55,14.18,4.55,7.09-4.55,14.18-4.55,7.09,4.55,14.19,4.55S78,89.72,85.09,89.72s7.09,4.55,14.18,4.55,7.09-4.55,14.19-4.55,7.09,4.55,14.18,4.55,7.09-4.55,14.19-4.55,7.09,4.55,14.19,4.55,7.09-4.55,14.18-4.55,7.1,4.55,14.19,4.55,7.1-4.55,14.19-4.55,7.1,4.55,14.19,4.55,7.1-4.55,14.19-4.55"/><circle class="cls-3" cx="115.78" cy="7.12" r="7.12"/></g></g></svg>