<svg xmlns="http://www.w3.org/2000/svg" viewBox="0 0 226.96 92.99"><defs><style>.cls-1,.cls-2{fill:none;stroke:gray;stroke-miterlimit:10;}.cls-2{stroke-width:3px;}</style></defs><title>day-white</title><g id="Layer_2" data-name="Layer 2"><g id="bg"><path class="cls-1" d="M81.46,16.62V54a7.6,7.6,0,0,0,7.6,7.6h50.8a7.6,7.6,0,0,0,7.6-7.6V16.62Z"/><path class="cls-2" d="M139.86,3.5H89.06a7.6,7.6,0,0,0-7.6,7.6V53.9a7.6,7.6,0,0,0,7.6,7.6h50.8a7.6,7.6,0,0,0,7.6-7.6V11.1A7.6,7.6,0,0,0,139.86,3.5Z"/><line class="cls-1" x1="91.96" y1="26.5" x2="136.96" y2="26.5"/><line class="cls-1" x1="91.96" y1="37.5" x2="136.96" y2="37.5"/><line class="cls-1" x1="91.96" y1="47.5" x2="136.96" y2="47.5"/><line class="cls-1" x1="93.46" x2="93.46" y2="9"/><line class="cls-1" x1="136.46" x2="136.46" y2="9"/><path class="cls-1" d="M0,87.93c7.09,0,7.09,4.56,14.18,4.56s7.09-4.56,14.18-4.56,7.09,4.56,14.18,4.56,7.09-4.56,14.18-4.56,7.09,4.56,14.19,4.56S78,87.93,85.09,87.93s7.09,4.56,14.18,4.56,7.09-4.56,14.19-4.56,7.09,4.56,14.18,4.56,7.09-4.56,14.19-4.56,7.09,4.56,14.19,4.56,7.09-4.56,14.18-4.56,7.1,4.56,14.19,4.56,7.1-4.56,14.19-4.56,7.1,4.56,14.19,4.56,7.1-4.56,14.19-4.56"/></g></g></svg>